<svg id="Layer_1" xmlns="http://www.w3.org/2000/svg" viewBox="0 0 1030 728"><style>.st0{fill:#595857}</style><path class="st0" d="M868 728.01H62c-34.19 0-62-27.81-62-62V159.58c0-34.19 27.81-62 62-62h806c34.19 0 62 27.81 62 62V666c0 34.19-27.81 62.01-62 62.01zM62 127.58c-17.64 0-32 14.35-32 32V666c0 17.65 14.36 32 32 32h806c17.64 0 32-14.35 32-32V159.58c0-17.65-14.36-32-32-32H62z"/><path class="st0" d="M1030 513.78h-30V62.03c0-17.65-14.36-32-32-32H216v-30h752c34.19 0 62 27.81 62 62v451.75zM814.8 628.78H615.7c-8.38 0-15.2-6.82-15.2-15.2v-99.6c0-8.38 6.82-15.2 15.2-15.2h199.1c8.38 0 15.2 6.82 15.2 15.2v99.6c0 8.38-6.82 15.2-15.2 15.2zm-184.3-30H800v-70H630.5v70zM115 498.78h272.42v30H115zM115 598.78h400v30H115z"/></svg>