<svg id="Layer_1" xmlns="http://www.w3.org/2000/svg" viewBox="0 0 216 137.21"><style>.st2{fill:#1c2f76}</style><path fill="#fff" d="M0 0h216v137.21H0z"/><path fill="#fab400" d="M3.6 114.92h208.8v18.72H3.6z"/><path class="st2" d="M3.6 3.6h208.8v18.72H3.6zM87.18 42.94L65.61 94.4H51.54L40.92 53.33c-.64-2.52-1.2-3.45-3.16-4.52-3.2-1.74-8.49-3.37-13.13-4.38l.31-1.49H47.6c2.89 0 5.48 1.92 6.14 5.24l5.61 29.78L73.2 42.94h13.98zm55.13 34.66c.06-13.58-18.77-14.33-18.65-20.4.04-1.84 1.8-3.81 5.64-4.31 1.91-.25 7.17-.44 13.13 2.3l2.33-10.92c-3.2-1.16-7.32-2.27-12.45-2.27-13.16 0-22.42 6.99-22.49 17.01-.08 7.41 6.61 11.54 11.65 14.01 5.19 2.52 6.93 4.14 6.91 6.39-.04 3.45-4.14 4.98-7.96 5.04-6.7.1-10.58-1.81-13.67-3.25l-2.42 11.28c3.12 1.43 8.86 2.67 14.8 2.73 13.99 0 23.14-6.91 23.18-17.61m34.75 16.8h12.31l-10.75-51.46h-11.35c-2.56 0-4.72 1.48-5.67 3.77L141.62 94.4h13.98l2.78-7.68h17.08l1.6 7.68zM162.2 76.17l7.01-19.32 4.03 19.32H162.2zm-56-33.23L95.19 94.4H81.88l11.01-51.46h13.31z"/></svg>