<svg xmlns="http://www.w3.org/2000/svg" viewBox="0 0 636.7 504"><style>.st0{fill:#0079be}.st1{fill:#fff}</style><g id="Layer_2"><path class="st0" d="M373.2 504c137.8.7 263.5-112.3 263.5-249.8C636.7 103.8 510.9-.1 373.2 0H254.6C115.2-.1.5 103.8.5 254.1c0 137.5 114.7 250.5 254.1 249.8h118.6z"/><path class="st1" d="M255.2 20.8c-127.4 0-230.6 103.3-230.6 230.7 0 127.4 103.2 230.6 230.6 230.7 127.4 0 230.7-103.3 230.7-230.7-.1-127.4-103.3-230.7-230.7-230.7zM109 251.5c.1-62.3 39-115.4 93.8-136.5v272.9c-54.8-21-93.7-74.1-93.8-136.4zM307.5 388V115c54.9 21.1 93.8 74.2 93.9 136.5-.1 62.3-39 115.4-93.9 136.5z"/><path class="st0" d="M373.2 504c137.8.7 263.5-112.3 263.5-249.8C636.7 103.8 510.9-.1 373.2 0H254.6C115.2-.1.5 103.8.5 254.1c0 137.5 114.7 250.5 254.1 249.8h118.6z"/><path class="st1" d="M255.2 20.8c-127.4 0-230.6 103.3-230.6 230.7 0 127.4 103.2 230.6 230.6 230.7 127.4 0 230.7-103.3 230.7-230.7-.1-127.4-103.3-230.7-230.7-230.7zM109 251.5c.1-62.3 39-115.4 93.8-136.5v272.9c-54.8-21-93.7-74.1-93.8-136.4zM307.5 388V115c54.9 21.1 93.8 74.2 93.9 136.5-.1 62.3-39 115.4-93.9 136.5z"/><path d="M620.8 20.8c8.7 0 15.2 6.7 15.2 15.2s-6.5 15.1-15.2 15.1-15.2-6.6-15.2-15.1 6.5-15.2 15.2-15.2zm0 27.5c6.8 0 12-5.8 12-12.3 0-6.5-5.1-12.4-12-12.4-6.8 0-12.1 5.9-12.1 12.4s5.2 12.3 12.1 12.3zm-7.6-4.3v-.8c1.9-.3 2.2-.2 2.2-1.4V30.7c0-1.6-.2-2.1-2.1-2v-.8h7.8c2.7 0 5.1 1.3 5.1 4 0 2.3-1.5 3.9-3.6 4.6l2.5 3.5c1.2 1.6 2.5 3.1 3.3 3.6v.4h-3c-1.4 0-2.7-3-5.5-7h-1.7v5c0 1 .3.9 2.2 1.2v.8h-7.2zm5.1-8h1.8c2 0 2.9-1.5 2.9-3.9s-1.4-3.3-3-3.3h-1.7V36z" fill="#211e1f"/></g></svg>