<?xml version="1.0" encoding="UTF-8"?>
<svg xmlns="http://www.w3.org/2000/svg" viewBox="0 0 404 132" version="1.1">
  <defs>
    <clipPath id="clip1">
      <path d="M 208.910156 42.445312 C 208.683594 60.585938 225.042969 70.707031 237.367188 76.726562 C 250.03125 82.902344 254.28125 86.863281 254.234375 92.386719 C 254.136719 100.839844 244.132812 104.570312 234.769531 104.714844 C 218.433594 104.96875 208.9375 100.292969 201.382812 96.757812 L 195.5 124.355469 C 203.074219 127.855469 217.105469 130.90625 231.652344 131.042969 C 265.796875 131.042969 288.140625 114.148438 288.257812 87.953125 C 288.390625 54.710938 242.382812 52.871094 242.695312 38.011719 C 242.804688 33.507812 247.09375 28.699219 256.492188 27.476562 C 261.144531 26.859375 273.988281 26.386719 288.550781 33.105469 L 294.265625 6.40625 C 286.433594 3.546875 276.371094 0.808594 263.839844 0.808594 C 231.699219 0.808594 209.09375 17.933594 208.910156 42.445312 M 349.179688 3.109375 C 342.945312 3.109375 337.691406 6.753906 335.347656 12.351562 L 286.566406 129.078125 L 320.691406 129.078125 L 327.480469 110.273438 L 369.179688 110.273438 L 373.117188 129.078125 L 403.191406 129.078125 L 376.949219 3.109375 L 349.179688 3.109375 M 353.953125 37.140625 L 363.800781 84.441406 L 336.832031 84.441406 L 353.953125 37.140625 M 167.539062 3.109375 L 140.644531 129.078125 L 173.15625 129.078125 L 200.042969 3.109375 L 167.539062 3.109375 M 119.4375 3.109375 L 85.59375 88.851562 L 71.902344 15.949219 C 70.296875 7.808594 63.953125 3.109375 56.910156 3.109375 L 1.582031 3.109375 L 0.808594 6.769531 C 12.164062 9.238281 25.070312 13.222656 32.886719 17.484375 C 37.671875 20.089844 39.039062 22.367188 40.609375 28.554688 L 66.539062 129.078125 L 100.902344 129.078125 L 153.582031 3.109375 L 119.4375 3.109375 "/>
    </clipPath>
    <linearGradient id="linear0" gradientUnits="userSpaceOnUse" x1="0" y1="0" x2="1" y2="0" gradientTransform="matrix(339.124072,-125.17253,124.89184,339.886241,37.25802,127.045607)">
      <stop offset="0" style="stop-color:rgb(13.333333%,13.72549%,34.117647%);stop-opacity:1;"/>
      <stop offset="1" style="stop-color:rgb(14.509804%,29.019608%,64.705882%);stop-opacity:1;"/>
    </linearGradient>
  </defs>
  <g id="surface1">
    <g clip-path="url(#clip1)" clip-rule="nonzero">
      <path style=" stroke:none;fill-rule:nonzero;fill:url(#linear0);" d="M -41.328125 16.363281 L 355.136719 -129.972656 L 445.332031 115.492188 L 48.871094 261.828125 "/>
    </g>
  </g>
</svg>
