<?xml version="1.0" encoding="utf-8"?>
<!-- Generator: Adobe Illustrator 25.4.1, SVG Export Plug-In . SVG Version: 6.00 Build 0)  -->
<svg version="1.1" id="Layer_1" xmlns="http://www.w3.org/2000/svg" xmlns:xlink="http://www.w3.org/1999/xlink" x="0px" y="0px"
	 viewBox="0 0 72.6 46.1" style="enable-background:new 0 0 72.6 46.1;" xml:space="preserve">
<style type="text/css">
	.st0{fill:#FFFFFF;}
	.st1{fill:#1A1F71;}
</style>
<g>
	<path class="st0" d="M72.6,43.1c0,1.5-1.2,2.7-2.7,2.7H2.7c-1.5,0-2.7-1.2-2.7-2.7V2.7C0,1.2,1.2,0,2.7,0h67.2
		c1.5,0,2.7,1.2,2.7,2.7V43.1z"/>
	<path class="st1" d="M27.6,13.3l-8.1,19.3h-5.3l-4-15.4c-0.2-0.9-0.5-1.3-1.2-1.7c-1.2-0.6-3.2-1.3-4.9-1.6l0.1-0.6h8.5
		c1.1,0,2.1,0.7,2.3,2l2.1,11.2l5.2-13.1H27.6z M48.2,26.2c0-5.1-7-5.4-7-7.6c0-0.7,0.7-1.4,2.1-1.6c0.7-0.1,2.7-0.2,4.9,0.9
		l0.9-4.1c-1.2-0.4-2.7-0.9-4.7-0.9c-4.9,0-8.4,2.6-8.4,6.4c0,2.8,2.5,4.3,4.4,5.2c1.9,0.9,2.6,1.5,2.6,2.4c0,1.3-1.5,1.9-3,1.9
		c-2.5,0-4-0.7-5.1-1.2L34,31.8c1.2,0.5,3.3,1,5.5,1C44.8,32.8,48.2,30.2,48.2,26.2 M61.3,32.5h4.6l-4-19.3h-4.3
		c-1,0-1.8,0.6-2.1,1.4L48,32.5h5.2l1-2.9h6.4L61.3,32.5z M55.7,25.7l2.6-7.2l1.5,7.2H55.7z M34.7,13.3l-4.1,19.3h-5l4.1-19.3H34.7z
		"/>
</g>
</svg>
